<svg width="231" height="78" viewBox="0 0 231 78" fill="none" xmlns="http://www.w3.org/2000/svg">
<g clip-path="url(#clip0_233_6145)">
<path d="M77.4413 40.5113C76.6375 40.196 76.3932 39.6442 76.7163 38.848L83.9269 21.0952C84.2264 20.4251 84.7071 20.0941 85.3533 20.0941H85.4163C86.0704 20.1256 86.5196 20.4567 86.7481 21.0952L94.077 38.848C94.4001 39.6442 94.1715 40.2039 93.3835 40.5113C92.5875 40.8267 92.028 40.5902 91.7207 39.8176L90.0894 35.8524H80.6565L79.0962 39.8176C78.781 40.6059 78.2372 40.8346 77.4649 40.5113H77.4413ZM81.6337 33.3062H89.0256L85.2587 24.1302L81.6416 33.3062H81.6337Z" fill="#203C89"/>
<path d="M98.6398 40.6375C98.2064 40.6375 97.8833 40.535 97.6784 40.33C97.4735 40.1251 97.3711 39.8019 97.3711 39.3683V21.4027C97.3711 20.9612 97.4735 20.638 97.6784 20.433C97.8833 20.2281 98.2064 20.1335 98.6398 20.1335C99.0733 20.1335 99.4043 20.236 99.6091 20.433C99.814 20.638 99.9086 20.9612 99.9086 21.4027V39.3683C99.9086 39.8019 99.8062 40.1251 99.6091 40.33C99.4043 40.535 99.0812 40.6375 98.6398 40.6375Z" fill="#203C89"/>
<path d="M119.058 34.1497C118.837 33.9053 118.522 33.787 118.112 33.787H116.363C116.363 33.7949 116.387 21.3632 116.387 21.3632C116.387 20.5119 115.922 20.0941 114.992 20.0941C114.062 20.0941 114.29 20.1335 114.015 20.2202C113.739 20.3069 113.471 20.5276 113.203 20.8824L103.691 33.724C103.344 34.2048 103.179 34.6542 103.179 35.0562C103.179 35.9076 103.604 36.3254 104.448 36.3254H113.81V39.3525C113.81 40.2039 114.227 40.6217 115.078 40.6217C115.93 40.6217 116.347 40.196 116.347 39.3525V36.3254H118.105C118.956 36.3254 119.373 35.8997 119.373 35.0562C119.373 34.2127 119.263 34.3862 119.05 34.1497H119.058ZM106.347 33.8422L113.841 23.6888L113.825 33.8028L106.355 33.8422H106.347Z" fill="#40B6E6"/>
<path d="M123.928 40.6375C123.077 40.6375 122.659 40.2118 122.659 39.3683V21.3711C122.659 20.5197 123.085 20.1019 123.928 20.1019H134.795C135.646 20.1019 136.064 20.5276 136.064 21.3711C136.064 22.2146 135.639 22.6403 134.795 22.6403H125.197V38.0912H134.795C135.646 38.0912 136.064 38.5169 136.064 39.3604C136.064 40.2039 135.639 40.6296 134.795 40.6296H123.928V40.6375Z" fill="#203C89"/>
<path d="M146.332 40.6375C144.023 40.6375 142.313 40.0856 141.21 38.982C140.107 37.8784 139.555 36.1677 139.555 33.858V21.379C139.555 20.9533 139.658 20.638 139.87 20.4251C140.083 20.2123 140.398 20.1098 140.824 20.1098C141.249 20.1098 141.565 20.2123 141.777 20.4251C141.99 20.638 142.093 20.9533 142.093 21.379V33.858C142.093 34.938 142.219 35.7893 142.479 36.4042C142.739 37.0191 143.172 37.4606 143.787 37.7128C144.402 37.973 145.253 38.0991 146.332 38.0991H149.965C151.045 38.0991 151.896 37.973 152.511 37.7128C153.125 37.4527 153.559 37.0191 153.819 36.4042C154.079 35.7893 154.205 34.938 154.205 33.858V21.379C154.205 20.9533 154.307 20.638 154.52 20.4251C154.733 20.2123 155.048 20.1098 155.474 20.1098C155.899 20.1098 156.214 20.2123 156.427 20.4251C156.64 20.638 156.742 20.9533 156.742 21.379V33.858C156.742 36.1677 156.191 37.8784 155.095 38.982C153.992 40.0856 152.282 40.6375 149.965 40.6375H146.332Z" fill="#203C89"/>
<path d="M174.891 40.6927C174.56 40.9055 174.237 40.9686 173.938 40.8897C173.638 40.8109 173.378 40.5981 173.165 40.267L168.469 32.4548H164.229V39.3604C164.229 40.2118 163.803 40.6296 162.96 40.6296C162.117 40.6296 161.691 40.2039 161.691 39.3604V21.3632C161.691 20.5119 162.117 20.0941 162.96 20.0941H170.045C171.889 20.0941 173.307 20.5828 174.292 21.5682C175.277 22.5536 175.766 23.9726 175.766 25.8172V26.7238C175.766 28.3319 175.396 29.609 174.647 30.5628C173.898 31.5167 172.819 32.1079 171.408 32.3444L175.372 38.9662C175.758 39.6757 175.593 40.2512 174.891 40.6927ZM164.229 29.9085H170.045C171.195 29.9085 172.015 29.6642 172.496 29.1833C172.976 28.7024 173.221 27.8826 173.221 26.7316V25.8251C173.221 24.682 172.976 23.8701 172.496 23.3813C172.007 22.8926 171.195 22.6482 170.045 22.6482H164.229V29.9164V29.9085Z" fill="#203C89"/>
<path d="M185.459 40.6375C183.15 40.6375 181.44 40.0857 180.337 38.982C179.233 37.8784 178.682 36.1678 178.682 33.858V26.8578C178.682 24.5244 179.233 22.8138 180.344 21.718C181.456 20.6222 183.158 20.0862 185.459 20.102H189.092C191.416 20.102 193.127 20.6538 194.222 21.7495C195.325 22.8532 195.869 24.5638 195.869 26.8814V33.8501C195.869 36.1599 195.317 37.8705 194.222 38.9742C193.119 40.0778 191.409 40.6296 189.092 40.6296H185.459V40.6375ZM185.459 38.0912H189.092C190.171 38.0912 191.022 37.9651 191.637 37.705C192.252 37.4448 192.693 37.0113 192.945 36.3964C193.205 35.7815 193.331 34.9301 193.331 33.8501V26.8814C193.331 25.8093 193.205 24.9658 192.945 24.351C192.685 23.7361 192.252 23.2946 191.637 23.0345C191.022 22.7743 190.171 22.6403 189.092 22.6403H185.459C184.387 22.6324 183.544 22.7507 182.929 23.0029C182.315 23.2552 181.873 23.6888 181.613 24.3037C181.353 24.9185 181.219 25.7699 181.219 26.8499V33.8501C181.219 34.9301 181.345 35.7815 181.605 36.3964C181.865 37.0113 182.299 37.4527 182.913 37.705C183.528 37.9651 184.379 38.0912 185.459 38.0912Z" fill="#203C89"/>
<path d="M201.511 40.6375C200.66 40.6375 200.243 40.2118 200.243 39.3683V21.3711C200.243 20.5197 200.668 20.1019 201.511 20.1019H208.596C210.44 20.1019 211.858 20.5907 212.844 21.5761C213.829 22.5615 214.317 23.9804 214.317 25.8251V26.7316C214.317 28.5763 213.829 29.9952 212.844 30.9806C211.858 31.966 210.44 32.4548 208.596 32.4548H202.78V39.3604C202.78 40.2118 202.355 40.6296 201.511 40.6296V40.6375ZM202.78 29.9164H208.596C209.747 29.9164 210.566 29.672 211.047 29.1912C211.528 28.7103 211.772 27.8905 211.772 26.7395V25.833C211.772 24.6899 211.528 23.8779 211.047 23.3892C210.558 22.9004 209.747 22.6561 208.596 22.6561H202.78V29.9243V29.9164Z" fill="#203C89"/>
<path d="M128.987 32.3208C130.067 32.3208 130.942 31.4455 130.942 30.3658C130.942 29.2861 130.067 28.4108 128.987 28.4108C127.908 28.4108 127.033 29.2861 127.033 30.3658C127.033 31.4455 127.908 32.3208 128.987 32.3208Z" fill="#40B6E6"/>
<path d="M218.856 40.6375C218.005 40.6375 217.587 40.2118 217.587 39.3683V21.3711C217.587 20.5197 218.013 20.1019 218.856 20.1019H229.723C230.574 20.1019 230.992 20.5276 230.992 21.3711C230.992 22.2146 230.567 22.6403 229.723 22.6403H220.125V38.0912H229.723C230.574 38.0912 230.992 38.5169 230.992 39.3604C230.992 40.2039 230.567 40.6296 229.723 40.6296H218.856V40.6375Z" fill="#203C89"/>
<path d="M223.923 32.3208C225.003 32.3208 225.878 31.4455 225.878 30.3658C225.878 29.2861 225.003 28.4108 223.923 28.4108C222.844 28.4108 221.969 29.2861 221.969 30.3658C221.969 31.4455 222.844 32.3208 223.923 32.3208Z" fill="#40B6E6"/>
<path d="M30.4422 61.0232C23.0582 61.0232 16.0052 58.3824 10.4022 53.4633C4.2712 48.0949 0.60678 40.6611 0.0709088 32.5336C-0.614691 22.1752 3.95598 12.274 12.2856 6.06211C14.0508 4.74563 16.549 5.10825 17.865 6.87407C19.181 8.63989 18.8185 11.1388 17.0533 12.4553C10.8908 17.0433 7.51795 24.3588 8.0223 32.0055C8.41632 38.0045 11.1272 43.4912 15.6506 47.4564C20.174 51.4216 25.9819 53.3845 31.9631 52.9903C37.4164 52.6277 42.5387 50.3101 46.3923 46.4473C47.9526 44.8865 50.4743 44.8865 52.0347 46.4473C53.595 48.0082 53.595 50.5308 52.0347 52.0917C46.8099 57.3182 39.8672 60.4714 32.4911 60.9523C31.8055 60.9996 31.1199 61.0232 30.4422 61.0232ZM32.3572 7.57567L32.633 0.835601C32.6487 0.394147 32.3099 0.0236398 31.8686 0.00787354C31.4273 0.00787354 31.0569 0.331082 31.0411 0.772536L30.7653 7.51261C30.7495 7.95406 31.0884 8.32457 31.5297 8.34033C31.5376 8.34033 31.5534 8.34033 31.5612 8.34033C31.9868 8.34033 32.3414 8.00136 32.3572 7.57567ZM36.4708 8.2615L37.9523 1.6791C38.0469 1.24552 37.7789 0.819835 37.3455 0.725238C36.92 0.63064 36.4865 0.898666 36.392 1.33224L34.9104 7.91465C34.8159 8.34822 35.0838 8.7739 35.5172 8.8685C35.5724 8.88427 35.6354 8.88427 35.6906 8.88427C36.0531 8.88427 36.3841 8.63201 36.4708 8.2615ZM40.3952 9.67258L43.0273 3.46068C43.2007 3.05864 43.0115 2.58565 42.6018 2.41223C42.1999 2.2388 41.727 2.42799 41.5537 2.83791L38.9216 9.04981C38.7482 9.45185 38.9373 9.92484 39.3471 10.0983C39.4496 10.1377 39.552 10.1613 39.6545 10.1613C39.9618 10.1613 40.2613 9.98002 40.3874 9.67258H40.3952ZM44.0045 11.7616L47.7004 6.11729C47.9447 5.74679 47.8423 5.25803 47.4719 5.01366C47.1015 4.76928 46.6129 4.87176 46.3686 5.24227L42.6727 10.8866C42.4284 11.2571 42.5308 11.7458 42.9012 11.9902C43.0352 12.0769 43.1849 12.1242 43.3347 12.1242C43.5947 12.1242 43.8469 11.9981 44.0045 11.7616ZM47.1803 14.4655L51.8219 9.5701C52.1214 9.24689 52.1135 8.74237 51.7904 8.44281C51.4673 8.13537 50.9629 8.15114 50.6635 8.47435L46.0219 13.3698C45.7224 13.693 45.7303 14.1975 46.0534 14.4971C46.211 14.6468 46.408 14.7178 46.605 14.7178C46.8021 14.7178 47.0306 14.6311 47.1803 14.4655ZM49.8281 17.6897L55.2736 13.7009C55.6282 13.4407 55.707 12.9441 55.4469 12.5815C55.1869 12.2267 54.6904 12.1479 54.3279 12.408L48.8825 16.3969C48.5279 16.657 48.4491 17.1537 48.7091 17.5163C48.8667 17.7291 49.111 17.8395 49.3553 17.8395C49.5996 17.8395 49.6863 17.7922 49.8281 17.6818V17.6897ZM51.8534 21.3317L57.9214 18.3834C58.3154 18.1942 58.4809 17.7134 58.2918 17.3192C58.1026 16.9251 57.6219 16.7595 57.2279 16.9487L51.16 19.897C50.7659 20.0862 50.6004 20.5671 50.7896 20.9612C50.9235 21.245 51.2151 21.4105 51.5067 21.4105C51.7983 21.4105 51.7431 21.3869 51.8534 21.3317ZM53.201 25.2812L59.6945 23.4602C60.12 23.3419 60.3643 22.9005 60.2461 22.4748C60.1279 22.0491 59.6866 21.8047 59.2611 21.923L52.7676 23.744C52.342 23.8622 52.0977 24.3037 52.2159 24.7293C52.3105 25.0841 52.6336 25.3127 52.9803 25.3127C53.3271 25.3127 53.1222 25.3048 53.1931 25.2812H53.201ZM53.8157 29.404L60.5298 28.7734C60.9711 28.734 61.2942 28.3398 61.2469 27.9062C61.2075 27.4648 60.8214 27.1495 60.3801 27.1889L53.6659 27.8195C53.2246 27.8589 52.9015 28.2531 52.9488 28.6867C52.9882 29.0966 53.335 29.4119 53.7447 29.4119C54.1545 29.4119 53.792 29.4119 53.8157 29.4119V29.404ZM61.2706 33.4323C61.31 32.9909 60.9869 32.6046 60.5456 32.5652L53.8235 31.9818C53.3744 31.9424 52.9961 32.2656 52.9567 32.7071C52.9173 33.1485 53.2404 33.5348 53.6817 33.5742L60.4037 34.1576C60.4274 34.1576 60.451 34.1576 60.4747 34.1576C60.8844 34.1576 61.2312 33.8422 61.2706 33.4244V33.4323ZM60.3013 38.8717C60.4195 38.446 60.1673 38.0045 59.7418 37.8942L53.2325 36.1205C52.807 36.0101 52.3657 36.2545 52.2553 36.6802C52.1371 37.1058 52.3893 37.5473 52.8148 37.6577L59.3241 39.4314C59.395 39.4471 59.466 39.4629 59.5369 39.4629C59.8836 39.4629 60.2067 39.2264 60.3092 38.8717H60.3013ZM58.3785 44.0509C58.5676 43.6567 58.4021 43.1758 58.0002 42.9867L51.9086 40.0778C51.5067 39.8886 51.0339 40.0541 50.8447 40.4562C50.6556 40.8503 50.8211 41.3312 51.223 41.5204L57.3146 44.4293C57.4249 44.4844 57.5431 44.5081 57.6534 44.5081C57.9529 44.5081 58.2366 44.3426 58.3706 44.0509H58.3785ZM23.5783 9.44397C23.996 9.30996 24.2245 8.85274 24.0827 8.43493L21.9786 2.02595C21.8446 1.60815 21.3954 1.37954 20.9699 1.52143C20.5522 1.65545 20.3237 2.11267 20.4655 2.53047L22.5696 8.93945C22.68 9.27843 22.9952 9.49127 23.3262 9.49127C23.6571 9.49127 23.4916 9.4755 23.5783 9.45185V9.44397ZM27.5028 8.53741C27.9362 8.47435 28.2436 8.07231 28.1805 7.63874L27.2506 0.953848C27.1876 0.512393 26.7778 0.212835 26.3523 0.2759C25.9188 0.338965 25.6115 0.741004 25.6745 1.17458L26.6044 7.85946C26.6596 8.2615 26.9984 8.54529 27.3925 8.54529C27.7865 8.54529 27.4634 8.54529 27.5028 8.54529V8.53741ZM32.3493 7.57567L32.6251 0.835601C32.6409 0.394147 32.302 0.0236398 31.8607 0.00787354C31.4194 0.00787354 31.049 0.331082 31.0332 0.772536L30.7574 7.51261C30.7417 7.95406 31.0805 8.32457 31.5218 8.34033C31.5297 8.34033 31.5455 8.34033 31.5534 8.34033C31.9789 8.34033 32.3335 8.00136 32.3493 7.57567Z" fill="url(#paint0_linear_233_6145)"/>
<path d="M15.1895 13.2251C17.3782 12.9446 18.9253 10.9424 18.6449 8.75292C18.3645 6.56347 16.3629 5.01594 14.1742 5.29642C11.9855 5.57689 10.4385 7.57916 10.7189 9.76861C10.9992 11.9581 13.0008 13.5056 15.1895 13.2251Z" fill="#40B6E6"/>
<path d="M46.8098 30.8072C46.6443 39.7546 39.2367 46.8967 30.2924 46.7311C28.7084 46.6996 27.4475 45.391 27.4791 43.8065C27.5106 42.222 28.8187 40.9607 30.4027 40.9922C36.187 41.1026 40.9783 36.4831 41.0807 30.6969C41.1359 27.8984 40.0878 25.2418 38.1492 23.2237C36.2027 21.2056 33.5943 20.0704 30.7889 20.0152C25.4617 19.9206 20.9068 23.8228 20.2054 29.0966C20.0005 30.6653 18.5505 31.7769 16.9823 31.5561C15.4141 31.3433 14.3108 29.9007 14.5157 28.3319C15.6032 20.165 22.6483 14.1187 30.8913 14.2763C35.2256 14.3552 39.2682 16.121 42.2707 19.2427C45.281 22.3644 46.8886 26.4715 46.8098 30.8072ZM26.5728 41.0474C26.6043 41.142 26.628 41.2997 26.5413 41.4889L25.1622 44.3662C25.0755 44.5554 24.9416 44.6342 24.8391 44.6658C24.8076 44.6736 24.7682 44.6894 24.7288 44.6894C24.6421 44.6973 24.5239 44.6894 24.3978 44.6263C24.2087 44.5396 24.1299 44.3977 24.0983 44.3031C24.0668 44.2085 24.0432 44.0509 24.1299 43.8617L25.5089 40.9765C25.6508 40.6769 25.966 40.5665 26.2734 40.7084C26.4625 40.7952 26.5413 40.9292 26.5728 41.0316V41.0474ZM23.6413 39.2579C23.6413 39.3604 23.6255 39.5181 23.4915 39.6757L21.4111 42.0959C21.285 42.2378 21.1511 42.2851 21.0486 42.3008C21.0486 42.3008 21.0328 42.3008 21.025 42.3008C20.9225 42.3008 20.7649 42.2929 20.6073 42.1511C20.4497 42.017 20.4103 41.8673 20.4024 41.7569C20.4024 41.6544 20.4103 41.4968 20.5521 41.3391L22.6326 38.919C22.7665 38.7613 22.9163 38.7219 23.0187 38.714C23.1212 38.714 23.2788 38.7219 23.4364 38.8638C23.594 38.9978 23.6334 39.1476 23.6413 39.2579ZM21.0092 37.098L18.3535 38.8796C18.2668 38.9347 18.1722 38.9742 18.0856 38.982C17.8885 39.0057 17.6915 38.919 17.5576 38.7298C17.3684 38.446 17.4315 38.1228 17.7152 37.9336L20.363 36.152C20.5364 36.0337 20.694 36.0337 20.7964 36.0574C20.8989 36.081 21.0407 36.1362 21.1589 36.3097C21.3481 36.5856 21.2771 36.9088 21.0013 37.098H21.0092ZM19.2991 33.9763L16.273 35.0011C16.2258 35.0168 16.1785 35.0247 16.1391 35.0326C16.0051 35.0484 15.9027 35.0168 15.8317 34.9853C15.7372 34.938 15.6111 34.8434 15.548 34.6463C15.485 34.4492 15.5244 34.2995 15.5717 34.2049C15.619 34.1103 15.7135 33.9841 15.9105 33.9211L18.9366 32.8963C19.2519 32.7859 19.5513 32.9357 19.6616 33.251C19.772 33.5742 19.6222 33.8738 19.2991 33.9763Z" fill="url(#paint1_linear_233_6145)"/>
<path d="M33.2222 43.9526C33.2527 42.3638 31.9898 41.0511 30.4016 41.0206C28.8133 40.99 27.501 42.2533 27.4705 43.8421C27.44 45.4309 28.7028 46.7437 30.2911 46.7742C31.8794 46.8047 33.1917 45.5414 33.2222 43.9526Z" fill="#40B6E6"/>
<path d="M77.4571 63.1911C76.937 62.8127 76.6139 62.2373 76.4878 61.4568C76.4642 61.2282 76.5115 61.0548 76.6375 60.9287C76.7557 60.8025 76.9291 60.7395 77.1576 60.7395C77.3862 60.7395 77.5359 60.7946 77.6462 60.8971C77.7566 60.9996 77.8275 61.173 77.8748 61.4095C77.9536 61.78 78.1191 62.0323 78.387 62.1742C78.6549 62.3161 79.0726 62.387 79.6321 62.387H81.9805C82.4612 62.387 82.8237 62.3319 83.0838 62.2215C83.3359 62.1111 83.5251 61.9298 83.6275 61.6776C83.7378 61.4253 83.793 61.0627 83.793 60.5897C83.793 59.896 83.659 59.4151 83.399 59.155C83.1389 58.8948 82.6661 58.7608 81.9805 58.7608H79.9552C78.9308 58.7608 78.1742 58.5085 77.6699 58.0119C77.1734 57.5153 76.9212 56.7427 76.9212 55.71C76.9212 54.6773 77.1655 53.9284 77.662 53.4318C78.1585 52.9352 78.915 52.6908 79.9395 52.6908H81.878C83.596 52.6908 84.5889 53.4082 84.849 54.8429C84.8805 55.0715 84.8411 55.2449 84.715 55.3711C84.5968 55.4972 84.4156 55.5602 84.1791 55.5602C83.9427 55.5602 83.8009 55.5051 83.6906 55.3947C83.5802 55.2843 83.5093 55.1188 83.4778 54.8902C83.3911 54.5749 83.2256 54.3541 82.9892 54.2359C82.7528 54.1176 82.3824 54.0546 81.878 54.0546H79.9395C79.4903 54.0546 79.1514 54.1019 78.9229 54.2044C78.6865 54.2989 78.5288 54.4645 78.4343 54.701C78.3397 54.9375 78.2924 55.2686 78.2924 55.7021C78.2924 56.1357 78.3397 56.4905 78.4422 56.7191C78.5367 56.9556 78.7022 57.1211 78.9386 57.2236C79.175 57.3261 79.5139 57.3813 79.9552 57.3813H81.9805C83.0601 57.3813 83.856 57.6414 84.3761 58.1617C84.8963 58.682 85.1563 59.486 85.1563 60.5739C85.1563 61.6618 84.8963 62.4501 84.3761 62.9625C83.856 63.4828 83.0522 63.735 81.9805 63.735H79.6321C78.6943 63.735 77.9693 63.5459 77.4571 63.1753V63.1911Z" fill="#646567"/>
<path d="M94.8964 55.6628C95.0146 55.781 95.0777 55.9544 95.0777 56.1673V63.065C95.0777 63.5222 94.8492 63.7508 94.3921 63.7508C93.935 63.7508 93.7065 63.5222 93.7065 63.065V62.7891C93.1312 63.4276 92.2801 63.7508 91.1611 63.7508H90.704C89.6165 63.7508 88.8127 63.4907 88.2926 62.9704C87.7725 62.4501 87.5125 61.646 87.5125 60.5582V56.1673C87.5125 55.9466 87.5755 55.781 87.6937 55.6628C87.8119 55.5445 87.9853 55.4814 88.198 55.4814C88.4108 55.4814 88.5842 55.5445 88.7024 55.6628C88.8206 55.781 88.8837 55.9544 88.8837 56.1673V60.5582C88.8837 61.039 88.9388 61.4096 89.0491 61.6697C89.1595 61.9298 89.3407 62.119 89.6008 62.2215C89.8608 62.3319 90.2312 62.3871 90.7119 62.3871H91.169C91.8546 62.3871 92.4299 62.3082 92.9027 62.1506C93.3755 61.9929 93.6434 61.7643 93.7065 61.4569V56.1752C93.7065 55.9544 93.7695 55.7889 93.8877 55.6706C94.006 55.5524 94.1793 55.4893 94.3921 55.4893C94.6049 55.4893 94.7782 55.5524 94.8964 55.6706V55.6628Z" fill="#646567"/>
<path d="M104.928 56.2698C105.448 56.79 105.708 57.5941 105.708 58.682V60.5582C105.708 61.646 105.448 62.4501 104.928 62.9704C104.408 63.4907 103.604 63.7508 102.517 63.7508H99.3568V66.3286C99.3568 66.5494 99.2938 66.7149 99.1755 66.8331C99.0573 66.9514 98.884 67.0145 98.6712 67.0145C98.4584 67.0145 98.285 66.9514 98.1668 66.8331C98.0486 66.7149 97.9856 66.5415 97.9856 66.3286V56.1673C97.9856 55.9466 98.0486 55.781 98.1668 55.6628C98.285 55.5445 98.4584 55.4814 98.6712 55.4814C98.884 55.4814 99.0573 55.5445 99.1755 55.6628C99.2938 55.781 99.3568 55.9544 99.3568 56.1673V56.3801C99.9557 55.781 100.799 55.4814 101.902 55.4814H102.525C103.612 55.4814 104.416 55.7416 104.936 56.2619L104.928 56.2698ZM104.337 58.682C104.337 58.2011 104.282 57.8306 104.172 57.5705C104.061 57.3103 103.88 57.1211 103.62 57.0187C103.36 56.9083 102.99 56.8531 102.509 56.8531H101.886C101.169 56.8531 100.57 56.9398 100.098 57.1133C99.6247 57.2867 99.3726 57.5468 99.341 57.8779V62.3792H102.501C102.982 62.3792 103.352 62.324 103.612 62.2136C103.872 62.1033 104.061 61.922 104.164 61.6618C104.274 61.4017 104.329 61.0312 104.329 60.5503V58.6741L104.337 58.682Z" fill="#646567"/>
<path d="M115.165 56.2698C115.685 56.79 115.945 57.5941 115.945 58.682V60.5582C115.945 61.646 115.685 62.4501 115.165 62.9704C114.645 63.4907 113.841 63.7508 112.754 63.7508H109.594V66.3286C109.594 66.5494 109.531 66.7149 109.412 66.8331C109.294 66.9514 109.121 67.0145 108.908 67.0145C108.695 67.0145 108.522 66.9514 108.404 66.8331C108.285 66.7149 108.222 66.5415 108.222 66.3286V56.1673C108.222 55.9466 108.285 55.781 108.404 55.6628C108.522 55.5445 108.695 55.4814 108.908 55.4814C109.121 55.4814 109.294 55.5445 109.412 55.6628C109.531 55.781 109.594 55.9544 109.594 56.1673V56.3801C110.193 55.781 111.036 55.4814 112.139 55.4814H112.762C113.849 55.4814 114.653 55.7416 115.173 56.2619L115.165 56.2698ZM114.574 58.682C114.574 58.2011 114.519 57.8306 114.409 57.5705C114.298 57.3103 114.117 57.1211 113.857 57.0187C113.597 56.9083 113.226 56.8531 112.746 56.8531H112.123C111.406 56.8531 110.807 56.9398 110.334 57.1133C109.862 57.2867 109.609 57.5468 109.578 57.8779V62.3792H112.738C113.219 62.3792 113.589 62.324 113.849 62.2136C114.109 62.1033 114.298 61.922 114.401 61.6618C114.511 61.4017 114.566 61.0312 114.566 60.5503V58.6741L114.574 58.682Z" fill="#646567"/>
<path d="M118.853 62.9704C118.333 62.4501 118.073 61.646 118.073 60.5739V58.682C118.073 57.5941 118.333 56.79 118.853 56.2697C119.373 55.7495 120.177 55.4893 121.265 55.4893H122.604C123.692 55.4893 124.496 55.7495 125.016 56.2697C125.536 56.79 125.796 57.5941 125.796 58.682V60.5582C125.796 61.646 125.536 62.4501 125.016 62.9704C124.496 63.4907 123.692 63.7508 122.604 63.7508H121.265C120.177 63.7508 119.373 63.4907 118.853 62.9704ZM122.604 62.3871C123.085 62.3871 123.455 62.3319 123.715 62.2215C123.975 62.1111 124.165 61.9298 124.267 61.6697C124.377 61.4095 124.433 61.039 124.433 60.5582V58.682C124.433 58.2011 124.377 57.8306 124.267 57.5705C124.157 57.3103 123.975 57.1211 123.715 57.0186C123.455 56.9083 123.085 56.8531 122.604 56.8531H121.265C120.776 56.8531 120.406 56.9083 120.146 57.0186C119.893 57.129 119.704 57.3103 119.602 57.5626C119.491 57.8148 119.436 58.1932 119.436 58.682V60.5739C119.436 61.0548 119.491 61.4174 119.602 61.6776C119.712 61.9298 119.893 62.119 120.153 62.2215C120.413 62.3319 120.784 62.3871 121.265 62.3871H122.604Z" fill="#646567"/>
<path d="M133.125 55.6628C133.243 55.781 133.306 55.9544 133.306 56.1673C133.306 56.3801 133.243 56.5536 133.125 56.6718C133.007 56.79 132.833 56.8531 132.62 56.8531C131.698 56.8531 130.981 57.0265 130.477 57.3655C129.973 57.7045 129.705 58.1696 129.689 58.7608V63.065C129.689 63.2857 129.626 63.4513 129.508 63.5695C129.389 63.6878 129.216 63.7508 129.003 63.7508C128.79 63.7508 128.617 63.6878 128.499 63.5695C128.381 63.4513 128.318 63.2779 128.318 63.065V56.1673C128.318 55.7101 128.546 55.4814 129.003 55.4814C129.46 55.4814 129.689 55.7101 129.689 56.1673V56.8058C130.351 55.9229 131.328 55.4814 132.62 55.4814C133.913 55.4814 133.007 55.5445 133.125 55.6628Z" fill="#646567"/>
<path d="M138.956 63.065C138.956 63.2857 138.893 63.4512 138.775 63.5695C138.657 63.6877 138.483 63.7508 138.271 63.7508C137.191 63.7508 136.403 63.4985 135.891 62.9861C135.378 62.4737 135.126 61.6854 135.126 60.6212V56.8531H134.33C134.11 56.8531 133.944 56.79 133.826 56.6718C133.708 56.5535 133.645 56.3801 133.645 56.1672C133.645 55.71 133.873 55.4814 134.33 55.4814H135.126V54.2911C135.126 54.0703 135.189 53.9048 135.308 53.7865C135.426 53.6683 135.599 53.6052 135.812 53.6052C136.025 53.6052 136.198 53.6683 136.316 53.7865C136.434 53.9048 136.497 54.0782 136.497 54.2911V55.4814H138.373C138.83 55.4814 139.059 55.71 139.059 56.1672C139.059 56.6245 138.996 56.5535 138.877 56.6718C138.759 56.79 138.586 56.8531 138.373 56.8531H136.497V60.6212C136.497 61.0863 136.553 61.4489 136.663 61.7012C136.773 61.9535 136.955 62.1269 137.199 62.2294C137.451 62.3318 137.806 62.387 138.278 62.387C138.751 62.387 138.964 62.6156 138.964 63.0729L138.956 63.065Z" fill="#646567"/>
<path d="M141.005 53.9363C140.871 53.7944 140.8 53.6052 140.8 53.3688V52.88C140.8 52.6277 140.871 52.4385 141.005 52.3203C141.139 52.1942 141.336 52.1311 141.58 52.1311H142.053C142.542 52.1311 142.786 52.3834 142.786 52.88V53.3688C142.786 53.621 142.723 53.8102 142.597 53.9442C142.471 54.0782 142.29 54.1492 142.053 54.1492H141.58C141.328 54.1492 141.139 54.0782 141.005 53.9363ZM141.305 63.5774C141.186 63.4592 141.123 63.2857 141.123 63.0729V56.1751C141.123 55.9544 141.186 55.7889 141.305 55.6706C141.423 55.5524 141.596 55.4893 141.809 55.4893C142.022 55.4893 142.195 55.5524 142.313 55.6706C142.432 55.7889 142.495 55.9623 142.495 56.1751V63.0729C142.495 63.2936 142.432 63.4592 142.313 63.5774C142.195 63.6956 142.022 63.7587 141.809 63.7587C141.596 63.7587 141.423 63.6956 141.305 63.5774Z" fill="#646567"/>
<path d="M152.187 56.2698C152.708 56.79 152.968 57.5941 152.968 58.682V63.0729C152.968 63.2936 152.905 63.4592 152.786 63.5774C152.668 63.6957 152.495 63.7587 152.282 63.7587C152.069 63.7587 151.896 63.6957 151.778 63.5774C151.659 63.4592 151.596 63.2857 151.596 63.0729V58.682C151.596 58.2011 151.541 57.8306 151.431 57.5705C151.321 57.3103 151.139 57.1211 150.879 57.0187C150.619 56.9083 150.249 56.8531 149.768 56.8531H149.311C148.625 56.8531 148.05 56.9319 147.577 57.0896C147.105 57.2473 146.837 57.4759 146.774 57.7833V63.065C146.774 63.2857 146.71 63.4513 146.592 63.5695C146.474 63.6878 146.301 63.7508 146.088 63.7508C145.875 63.7508 145.702 63.6878 145.584 63.5695C145.465 63.4513 145.402 63.2779 145.402 63.065V56.1673C145.402 55.7101 145.631 55.4814 146.088 55.4814C146.545 55.4814 146.774 55.7101 146.774 56.1673V56.4432C147.349 55.8047 148.2 55.4814 149.319 55.4814H149.776C150.864 55.4814 151.667 55.7416 152.187 56.2619V56.2698Z" fill="#646567"/>
<path d="M163.047 56.1673V64.6653C163.047 65.4694 162.858 66.0606 162.48 66.4469C162.101 66.8253 161.51 67.0145 160.699 67.0145H157.665C156.348 67.0145 155.584 66.4784 155.379 65.3984C155.371 65.3669 155.363 65.3117 155.363 65.2329C155.363 65.0594 155.426 64.9175 155.545 64.8151C155.663 64.7126 155.836 64.6574 156.049 64.6574C156.262 64.6574 156.388 64.7126 156.49 64.8151C156.585 64.9175 156.672 65.091 156.75 65.3275C156.813 65.4457 156.916 65.5324 157.05 65.5718C157.184 65.6113 157.389 65.6349 157.665 65.6349H160.699C161.1 65.6349 161.36 65.5718 161.487 65.4457C161.613 65.3196 161.676 65.0594 161.676 64.6574V62.7655C161.384 63.0808 161.022 63.3252 160.58 63.4907C160.147 63.6563 159.658 63.743 159.13 63.743H158.508C157.42 63.743 156.616 63.4828 156.096 62.9625C155.576 62.4422 155.316 61.6382 155.316 60.5661V58.6741C155.316 57.5784 155.576 56.7664 156.096 56.2461C156.616 55.7258 157.42 55.4657 158.508 55.4814H159.847C160.628 55.4814 161.242 55.7101 161.676 56.1673C161.676 55.7101 161.904 55.4814 162.361 55.4814C162.818 55.4814 163.047 55.7101 163.047 56.1673ZM160.974 62.0954C161.439 61.9062 161.676 61.6224 161.676 61.2519V57.9883C161.676 57.5626 161.526 57.2709 161.219 57.0975C160.911 56.9319 160.454 56.8452 159.847 56.8452H158.508C158.027 56.8373 157.657 56.8846 157.397 56.995C157.137 57.1054 156.947 57.2867 156.845 57.5468C156.735 57.807 156.679 58.1854 156.679 58.6741V60.5661C156.679 61.0469 156.735 61.4096 156.845 61.6697C156.955 61.922 157.137 62.1112 157.397 62.2136C157.657 62.324 158.027 62.3792 158.508 62.3792H159.13C159.895 62.3792 160.509 62.2846 160.974 62.0954Z" fill="#646567"/>
<path d="M76.2199 77.562C76.0859 77.562 75.9913 77.5305 75.9204 77.4674C75.8495 77.4044 75.818 77.3019 75.818 77.1758C75.818 76.6003 75.9283 76.1194 76.1489 75.7332C76.3696 75.3469 76.6375 75.0394 76.9527 74.8108C77.268 74.5822 77.6935 74.3142 78.2451 74.0068C78.7416 73.723 79.0962 73.5101 79.309 73.3682C79.5218 73.2263 79.6952 73.0687 79.8212 72.8952C79.9473 72.7218 80.0104 72.509 80.0104 72.2646C80.0104 71.8152 79.9316 71.5078 79.7661 71.3423C79.6006 71.1767 79.2932 71.0979 78.8441 71.0979H77.6778C77.3074 71.0979 77.0316 71.1531 76.8582 71.2713C76.6848 71.3896 76.5745 71.5866 76.5272 71.8704C76.4878 72.1227 76.3538 72.2567 76.1253 72.2567C75.8968 72.2567 75.8968 72.2252 75.8337 72.1542C75.7707 72.0833 75.7392 71.9808 75.747 71.8547C75.8101 71.3265 76.0071 70.9402 76.3223 70.688C76.6375 70.4357 77.0946 70.3096 77.6856 70.3096H78.8519C79.5218 70.3096 80.0183 70.4672 80.3335 70.7826C80.6487 71.0979 80.8063 71.5945 80.8063 72.2646C80.8063 72.9346 80.7117 72.9819 80.5305 73.2657C80.3414 73.5495 80.1207 73.7781 79.8449 73.9673C79.5769 74.1565 79.175 74.393 78.6392 74.6926C78.1663 74.9606 77.8117 75.1813 77.5753 75.339C77.3389 75.4967 77.1419 75.7016 76.9685 75.9381C76.7951 76.1746 76.6927 76.4584 76.6454 76.7974H80.3729C80.6329 76.7974 80.7669 76.9314 80.7669 77.1915C80.7669 77.4517 80.6329 77.5857 80.3729 77.5857H76.2277L76.2199 77.562Z" fill="#203C89"/>
<path d="M82.6662 76.9787C82.28 76.5925 82.083 75.9933 82.083 75.1735V72.6588C82.083 71.8389 82.2721 71.2319 82.6662 70.8457C83.0523 70.4594 83.6512 70.2781 84.4708 70.286H85.1249C85.9444 70.286 86.5512 70.4752 86.9374 70.8614C87.3235 71.2477 87.5126 71.8468 87.5126 72.6745V75.1814C87.5126 76.0012 87.3235 76.6003 86.9374 76.9866C86.5512 77.3729 85.9523 77.57 85.1249 77.57H84.4708C83.6512 77.57 83.0523 77.3808 82.6662 76.9866V76.9787ZM85.1249 76.7738C85.5346 76.7738 85.8499 76.7265 86.0784 76.624C86.3069 76.5294 86.4724 76.3638 86.567 76.1352C86.6616 75.9066 86.7167 75.5834 86.7167 75.1814V72.6745C86.7167 72.2646 86.6694 71.9493 86.567 71.7207C86.4645 71.4921 86.3069 71.3265 86.0784 71.2319C85.8499 71.1373 85.5268 71.0821 85.1249 71.0821H84.4708C84.061 71.0821 83.7458 71.1216 83.5173 71.2162C83.2887 71.3108 83.1232 71.4763 83.0287 71.7049C82.9341 71.9335 82.8789 72.2567 82.8789 72.6588V75.1735C82.8789 75.5834 82.9262 75.8987 83.0287 76.1273C83.1311 76.356 83.2887 76.5215 83.5173 76.6161C83.7458 76.7107 84.0689 76.7659 84.4708 76.7659H85.1249V76.7738ZM84.4077 74.3221C84.3368 74.2512 84.3053 74.1566 84.3053 74.0304V73.7782C84.3053 73.5259 84.4393 73.3919 84.6993 73.3919H84.9436C85.1879 73.3919 85.314 73.518 85.314 73.7782V74.0304C85.314 74.1566 85.2825 74.2512 85.2194 74.3221C85.1564 74.3931 85.0618 74.4246 84.9436 74.4246H84.6993C84.5732 74.4246 84.4787 74.3931 84.4077 74.3221Z" fill="#203C89"/>
<path d="M89.2069 77.562C89.073 77.562 88.9784 77.5305 88.9075 77.4674C88.8365 77.4044 88.805 77.3019 88.805 77.1758C88.805 76.6003 88.9153 76.1194 89.136 75.7332C89.3567 75.3469 89.6246 75.0394 89.9398 74.8108C90.255 74.5822 90.6806 74.3142 91.2322 74.0068C91.7287 73.723 92.0833 73.5101 92.2961 73.3682C92.5088 73.2263 92.6822 73.0687 92.8083 72.8952C92.9344 72.7218 92.9974 72.509 92.9974 72.2646C92.9974 71.8152 92.9186 71.5078 92.7531 71.3423C92.5876 71.1767 92.2803 71.0979 91.8311 71.0979H90.6648C90.2944 71.0979 90.0186 71.1531 89.8452 71.2713C89.6719 71.3896 89.5616 71.5866 89.5143 71.8704C89.4749 72.1227 89.3409 72.2567 89.1124 72.2567C88.8838 72.2567 88.8838 72.2252 88.8208 72.1542C88.7577 72.0833 88.7262 71.9808 88.7341 71.8547C88.7971 71.3265 88.9942 70.9402 89.3094 70.688C89.6246 70.4357 90.0817 70.3096 90.6727 70.3096H91.839C92.5088 70.3096 93.0053 70.4672 93.3205 70.7826C93.6357 71.0979 93.7934 71.5945 93.7934 72.2646C93.7934 72.9346 93.6988 72.9819 93.5175 73.2657C93.3284 73.5495 93.1078 73.7781 92.8319 73.9673C92.564 74.1565 92.1621 74.393 91.6262 74.6926C91.1534 74.9606 90.7988 75.1813 90.5624 75.339C90.3259 75.4967 90.1289 75.7016 89.9556 75.9381C89.7822 76.1746 89.6798 76.4584 89.6325 76.7974H93.3599C93.62 76.7974 93.754 76.9314 93.754 77.1915C93.754 77.4517 93.62 77.5857 93.3599 77.5857H89.2148L89.2069 77.562Z" fill="#203C89"/>
<path d="M95.2433 77.562C95.1093 77.562 95.0148 77.5305 94.9439 77.4674C94.8729 77.4044 94.8414 77.3019 94.8414 77.1758C94.8414 76.6003 94.9517 76.1194 95.1724 75.7332C95.393 75.3469 95.661 75.0394 95.9762 74.8108C96.2914 74.5822 96.717 74.3142 97.2686 74.0068C97.7651 73.723 98.1197 73.5101 98.3325 73.3682C98.5452 73.2263 98.7186 73.0687 98.8447 72.8952C98.9708 72.7218 99.0338 72.509 99.0338 72.2646C99.0338 71.8152 98.955 71.5078 98.7895 71.3423C98.624 71.1767 98.3167 71.0979 97.8675 71.0979H96.7012C96.3308 71.0979 96.055 71.1531 95.8816 71.2713C95.7083 71.3896 95.5979 71.5866 95.5506 71.8704C95.5112 72.1227 95.3773 72.2567 95.1487 72.2567C94.9202 72.2567 94.9202 72.2252 94.8572 72.1542C94.7941 72.0833 94.7626 71.9808 94.7705 71.8547C94.8335 71.3265 95.0305 70.9402 95.3458 70.688C95.661 70.4357 96.118 70.3096 96.7091 70.3096H97.8754C98.5452 70.3096 99.0417 70.4672 99.3569 70.7826C99.6721 71.0979 99.8297 71.5945 99.8297 72.2646C99.8297 72.9346 99.7352 72.9819 99.5539 73.2657C99.3648 73.5495 99.1441 73.7781 98.8683 73.9673C98.6004 74.1565 98.1985 74.393 97.6626 74.6926C97.1898 74.9606 96.8352 75.1813 96.5988 75.339C96.3623 75.4967 96.1653 75.7016 95.9919 75.9381C95.8186 76.1746 95.7161 76.4584 95.6689 76.7974H99.3963C99.6564 76.7974 99.7903 76.9314 99.7903 77.1915C99.7903 77.4517 99.6564 77.5857 99.3963 77.5857H95.2512L95.2433 77.562Z" fill="#203C89"/>
<path d="M101.209 74.8503C101.146 74.7872 101.114 74.7084 101.114 74.6059C101.114 74.5034 101.146 74.4325 101.209 74.3615C101.272 74.2984 101.351 74.2669 101.453 74.2669H104.471C104.566 74.2669 104.645 74.2984 104.716 74.3615C104.779 74.4246 104.81 74.5113 104.81 74.6059C104.81 74.7005 104.779 74.7793 104.716 74.8503C104.653 74.9133 104.566 74.9449 104.471 74.9449H101.453C101.359 74.9449 101.28 74.9133 101.209 74.8503Z" fill="#203C89"/>
<path d="M106.496 77.562C106.363 77.562 106.268 77.5305 106.197 77.4674C106.126 77.4044 106.095 77.3019 106.095 77.1758C106.095 76.6003 106.205 76.1194 106.426 75.7332C106.646 75.3469 106.914 75.0394 107.229 74.8108C107.545 74.5822 107.97 74.3142 108.522 74.0068C109.018 73.723 109.373 73.5101 109.586 73.3682C109.798 73.2263 109.972 73.0687 110.098 72.8952C110.224 72.7218 110.287 72.509 110.287 72.2646C110.287 71.8152 110.208 71.5078 110.043 71.3423C109.877 71.1767 109.57 71.0979 109.121 71.0979H107.954C107.584 71.0979 107.308 71.1531 107.135 71.2713C106.961 71.3896 106.851 71.5866 106.804 71.8704C106.764 72.1227 106.63 72.2567 106.402 72.2567C106.173 72.2567 106.173 72.2252 106.11 72.1542C106.047 72.0833 106.016 71.9808 106.024 71.8547C106.087 71.3265 106.284 70.9402 106.599 70.688C106.914 70.4357 107.371 70.3096 107.962 70.3096H109.129C109.798 70.3096 110.295 70.4672 110.61 70.7826C110.925 71.0979 111.083 71.5945 111.083 72.2646C111.083 72.9346 110.988 72.9819 110.807 73.2657C110.618 73.5495 110.397 73.7781 110.121 73.9673C109.854 74.1565 109.452 74.393 108.916 74.6926C108.443 74.9606 108.088 75.1813 107.852 75.339C107.616 75.4967 107.418 75.7016 107.245 75.9381C107.072 76.1746 106.969 76.4584 106.922 76.7974H110.649C110.91 76.7974 111.044 76.9314 111.044 77.1915C111.044 77.4517 110.91 77.5857 110.649 77.5857H106.504L106.496 77.562Z" fill="#203C89"/>
<path d="M112.951 76.9787C112.564 76.5925 112.367 75.9933 112.367 75.1735V72.6588C112.367 71.8389 112.557 71.2319 112.951 70.8457C113.337 70.4594 113.936 70.2781 114.755 70.286H115.409C116.229 70.286 116.836 70.4752 117.222 70.8614C117.608 71.2477 117.797 71.8468 117.797 72.6745V75.1814C117.797 76.0012 117.608 76.6003 117.222 76.9866C116.836 77.3729 116.237 77.57 115.409 77.57H114.755C113.936 77.57 113.337 77.3808 112.951 76.9866V76.9787ZM115.409 76.7738C115.819 76.7738 116.134 76.7265 116.363 76.624C116.591 76.5294 116.757 76.3638 116.851 76.1352C116.946 75.9066 117.001 75.5834 117.001 75.1814V72.6745C117.001 72.2646 116.954 71.9493 116.851 71.7207C116.749 71.4921 116.591 71.3265 116.363 71.2319C116.134 71.1373 115.811 71.0821 115.409 71.0821H114.755C114.345 71.0821 114.03 71.1216 113.802 71.2162C113.573 71.3108 113.408 71.4763 113.313 71.7049C113.219 71.9335 113.163 72.2567 113.163 72.6588V75.1735C113.163 75.5834 113.211 75.8987 113.313 76.1273C113.416 76.356 113.573 76.5215 113.802 76.6161C114.03 76.7107 114.353 76.7659 114.755 76.7659H115.409V76.7738ZM114.692 74.3221C114.621 74.2512 114.59 74.1566 114.59 74.0304V73.7782C114.59 73.5259 114.724 73.3919 114.984 73.3919H115.228C115.472 73.3919 115.598 73.518 115.598 73.7782V74.0304C115.598 74.1566 115.567 74.2512 115.504 74.3221C115.441 74.3931 115.346 74.4246 115.228 74.4246H114.984C114.858 74.4246 114.763 74.3931 114.692 74.3221Z" fill="#203C89"/>
<path d="M119.484 77.562C119.35 77.562 119.255 77.5305 119.184 77.4674C119.113 77.4044 119.082 77.3019 119.082 77.1758C119.082 76.6003 119.192 76.1194 119.413 75.7332C119.633 75.3469 119.901 75.0394 120.216 74.8108C120.532 74.5822 120.957 74.3142 121.509 74.0068C122.005 73.723 122.36 73.5101 122.573 73.3682C122.785 73.2263 122.959 73.0687 123.085 72.8952C123.211 72.7218 123.274 72.509 123.274 72.2646C123.274 71.8152 123.195 71.5078 123.03 71.3423C122.864 71.1767 122.557 71.0979 122.108 71.0979H120.941C120.571 71.0979 120.295 71.1531 120.122 71.2713C119.948 71.3896 119.838 71.5866 119.791 71.8704C119.751 72.1227 119.618 72.2567 119.389 72.2567C119.16 72.2567 119.16 72.2252 119.097 72.1542C119.034 72.0833 119.003 71.9808 119.011 71.8547C119.074 71.3265 119.271 70.9402 119.586 70.688C119.901 70.4357 120.358 70.3096 120.949 70.3096H122.116C122.785 70.3096 123.282 70.4672 123.597 70.7826C123.912 71.0979 124.07 71.5945 124.07 72.2646C124.07 72.9346 123.975 72.9819 123.794 73.2657C123.605 73.5495 123.384 73.7781 123.109 73.9673C122.841 74.1565 122.439 74.393 121.903 74.6926C121.43 74.9606 121.075 75.1813 120.839 75.339C120.603 75.4967 120.406 75.7016 120.232 75.9381C120.059 76.1746 119.956 76.4584 119.909 76.7974H123.637C123.897 76.7974 124.031 76.9314 124.031 77.1915C124.031 77.4517 123.897 77.5857 123.637 77.5857H119.491L119.484 77.562Z" fill="#203C89"/>
<path d="M125.946 77.1522C125.607 76.8841 125.41 76.4663 125.354 75.9066C125.354 75.7726 125.378 75.678 125.441 75.6071C125.504 75.5361 125.607 75.5046 125.733 75.5046C125.977 75.5046 126.111 75.6386 126.135 75.8987C126.182 76.2298 126.292 76.4584 126.481 76.5846C126.671 76.7107 126.97 76.7738 127.388 76.7738H128.522C128.861 76.7738 129.113 76.7343 129.295 76.6555C129.476 76.5767 129.61 76.4427 129.681 76.2614C129.76 76.08 129.799 75.8278 129.799 75.4967V74.7399C129.799 74.4088 129.76 74.1566 129.681 73.9753C129.602 73.7939 129.468 73.6599 129.287 73.5811C129.106 73.5023 128.853 73.4629 128.522 73.4629H127.711C127.128 73.4629 126.71 73.5496 126.45 73.7151C126.308 73.8176 126.19 73.8649 126.08 73.8649C125.969 73.8649 125.961 73.8649 125.93 73.8412L125.843 73.8176C125.615 73.7545 125.504 73.6047 125.504 73.384V70.6801C125.504 70.554 125.536 70.4594 125.607 70.3884C125.678 70.3175 125.772 70.2859 125.898 70.2859H130.169C130.43 70.2859 130.563 70.42 130.563 70.6801C130.563 70.9402 130.43 71.0743 130.169 71.0743H126.292V72.9031C126.663 72.7534 127.135 72.6745 127.711 72.6745H128.522C129.232 72.6745 129.752 72.8401 130.083 73.1791C130.422 73.518 130.587 74.0383 130.587 74.7399V75.4967C130.587 76.2062 130.422 76.7265 130.083 77.0576C129.744 77.3965 129.224 77.5621 128.522 77.5621H127.388C126.757 77.5621 126.269 77.4281 125.938 77.16L125.946 77.1522Z" fill="#203C89"/>
<path d="M169.596 63.7193C169.17 63.5538 169.044 63.2621 169.209 62.8364L173.024 53.4397C173.181 53.085 173.433 52.9116 173.78 52.9116H173.812C174.158 52.9273 174.395 53.1008 174.521 53.4397L178.398 62.8364C178.571 63.2621 178.445 63.5538 178.028 63.7193C177.602 63.8849 177.311 63.7587 177.145 63.3488L176.278 61.2519H171.282L170.455 63.3488C170.289 63.7666 169.997 63.8927 169.588 63.7193H169.596ZM171.818 59.9039H175.727L173.733 55.0479L171.818 59.9039Z" fill="#646567"/>
<path d="M181.456 63.7824C181.227 63.7824 181.054 63.7272 180.943 63.6168C180.833 63.5065 180.778 63.3409 180.778 63.1044V53.5974C180.778 53.3609 180.833 53.1953 180.943 53.085C181.054 52.9746 181.219 52.9273 181.456 52.9273C181.692 52.9273 181.865 52.9825 181.968 53.085C182.07 53.1953 182.125 53.3609 182.125 53.5974V63.1044C182.125 63.333 182.07 63.5065 181.968 63.6168C181.857 63.7272 181.692 63.7824 181.456 63.7824Z" fill="#646567"/>
<path d="M187.484 61.0154C186.42 61.0154 185.632 60.7552 185.12 60.2428C184.6 59.7304 184.348 58.9421 184.348 57.8858V56.0254C184.348 54.9533 184.608 54.1571 185.12 53.6447C185.632 53.1323 186.42 52.88 187.484 52.88H188.8C189.872 52.88 190.66 53.1401 191.172 53.6525C191.685 54.165 191.945 54.9533 191.945 56.0254V57.87C191.945 58.9342 191.692 59.7226 191.172 60.235C190.66 60.7474 189.872 61.0075 188.8 61.0075H187.484V61.0154ZM185.688 57.8858C185.688 58.5716 185.814 59.0446 186.066 59.289C186.318 59.5412 186.791 59.6595 187.484 59.6595H188.8C189.502 59.6595 189.975 59.5334 190.219 59.2811C190.471 59.0288 190.589 58.5559 190.589 57.8621V56.0175C190.589 55.3159 190.463 54.8429 190.219 54.5985C189.975 54.3463 189.494 54.228 188.8 54.228H187.484C187.019 54.228 186.657 54.2832 186.397 54.3857C186.137 54.4882 185.956 54.6695 185.845 54.9296C185.735 55.1898 185.688 55.5524 185.688 56.0254V57.8858Z" fill="#646567"/>
<path d="M194.845 63.7824C194.395 63.7824 194.175 63.5616 194.175 63.1123V53.5895C194.175 53.1402 194.395 52.9194 194.845 52.9194H198.706C200.101 52.9194 201.125 53.2505 201.787 53.9127C202.449 54.5749 202.772 55.5997 202.772 56.995V59.7226C202.772 61.1179 202.441 62.1427 201.795 62.8049C201.141 63.4671 200.109 63.7981 198.706 63.7981H194.845V63.7824ZM195.514 62.4344H198.706C199.392 62.4344 199.928 62.3476 200.329 62.1821C200.723 62.0166 201.015 61.7328 201.181 61.3307C201.346 60.9366 201.433 60.3926 201.433 59.7068V56.9792C201.433 56.3013 201.346 55.7652 201.181 55.3632C201.015 54.969 200.731 54.6774 200.329 54.5118C199.935 54.3384 199.392 54.2517 198.706 54.2517H195.514V62.4265V62.4344Z" fill="#646567"/>
<path d="M189.935 62.4107H186.357C185.987 62.4107 185.68 62.7103 185.68 63.0887C185.68 63.467 185.979 63.7666 186.357 63.7666H189.935C190.306 63.7666 190.613 63.467 190.613 63.0887C190.613 62.7103 190.313 62.4107 189.935 62.4107Z" fill="#0047BB"/>
</g>
<defs>
<linearGradient id="paint0_linear_233_6145" x1="-1.53762e-05" y1="30.5077" x2="61.2706" y2="30.5077" gradientUnits="userSpaceOnUse">
<stop offset="0.2" stop-color="#203C89"/>
<stop offset="0.7" stop-color="#40B6E6"/>
</linearGradient>
<linearGradient id="paint1_linear_233_6145" x1="19.441" y1="18.6988" x2="42.3966" y2="41.6388" gradientUnits="userSpaceOnUse">
<stop offset="0.3" stop-color="#40B6E6"/>
<stop offset="0.8" stop-color="#203C89"/>
</linearGradient>
<clipPath id="clip0_233_6145">
<rect width="231" height="77.562" fill="white"/>
</clipPath>
</defs>
</svg>
