<svg xmlns="http://www.w3.org/2000/svg" id="Capa_1" data-name="Capa 1" viewBox="0 0 1080 1080"><defs><style>      .cls-1 {        fill: #fff;      }    </style></defs><g><path class="cls-1" d="M197.98,810.39c8.75,2.14,15.84,4.06,21.29,5.76,5.44,1.71,9.65,3.95,12.64,6.72,2.98,2.78,5.01,6.46,6.08,11.04,1.07,4.59,1.6,10.72,1.6,18.41v38.73c0,15.37-4.27,26.68-12.8,33.93-8.54,7.26-21.88,10.88-40.01,10.88h-98.59v-39.69h85.15c4.69,0,8.48-.27,11.36-.8,2.88-.53,5.17-1.44,6.88-2.72,1.71-1.28,2.88-3.09,3.52-5.44.64-2.35.96-5.44.96-9.28v-12.16c0-3.84-.32-6.72-.96-8.64s-1.82-3.47-3.52-4.64c-1.71-1.17-4.06-2.08-7.04-2.72-2.99-.64-6.72-1.49-11.2-2.56l-42.57-9.6c-8.75-2.13-15.9-4.05-21.45-5.76-5.55-1.71-9.87-4-12.96-6.88-3.1-2.88-5.23-6.61-6.4-11.2-1.18-4.59-1.76-10.72-1.76-18.41v-38.73c0-15.37,4.27-26.67,12.8-33.93,8.53-7.25,21.87-10.88,40.01-10.88h90.59v39.69h-77.14c-9.18,0-15.26,1.18-18.25,3.52-2.99,2.35-4.48,7.26-4.48,14.72v12.16c0,3.84.32,6.72.96,8.64.64,1.92,1.81,3.42,3.52,4.48,1.71,1.07,4.05,1.92,7.04,2.56,2.99.64,6.72,1.5,11.2,2.56l43.53,10.24Z"></path><path class="cls-1" d="M269.68,760.45c0-15.37,4.27-27.31,12.8-35.85,8.53-8.53,21.87-12.8,40.01-12.8h103.39v39.69h-89.95c-9.39,0-15.52,1.87-18.4,5.6-2.88,3.74-4.32,9.34-4.32,16.8v32.01h81.62v39.37h-81.62v28.49c0,7.47,1.44,13.07,4.32,16.81,2.88,3.74,9.01,5.6,18.4,5.6h89.95v39.69h-103.39c-18.14,0-31.48-4.27-40.01-12.8-8.54-8.53-12.8-20.49-12.8-35.85v-126.76Z"></path><path class="cls-1" d="M568.97,711.8c18.13,0,31.47,4.27,40.01,12.8,8.53,8.54,12.8,20.49,12.8,35.85v175.41h-43.53v-161.97c0-7.47-1.5-13.07-4.48-16.8-2.99-3.73-9.18-5.6-18.57-5.6h-35.85c-9.39,0-15.53,1.87-18.41,5.6-2.88,3.74-4.32,9.34-4.32,16.8v161.97h-43.53v-175.41c0-15.37,4.27-27.31,12.8-35.85,8.53-8.53,21.87-12.8,40.01-12.8h63.06Z"></path><path class="cls-1" d="M763.91,810.39c8.75,2.14,15.84,4.06,21.29,5.76,5.44,1.71,9.65,3.95,12.64,6.72,2.98,2.78,5.01,6.46,6.08,11.04,1.07,4.59,1.6,10.72,1.6,18.41v38.73c0,15.37-4.27,26.68-12.8,33.93-8.54,7.26-21.88,10.88-40.01,10.88h-98.59v-39.69h85.15c4.69,0,8.48-.27,11.36-.8,2.88-.53,5.17-1.44,6.88-2.72,1.71-1.28,2.88-3.09,3.52-5.44.64-2.35.96-5.44.96-9.28v-12.16c0-3.84-.32-6.72-.96-8.64s-1.82-3.47-3.52-4.64c-1.71-1.17-4.06-2.08-7.04-2.72-2.99-.64-6.72-1.49-11.2-2.56l-42.57-9.6c-8.75-2.13-15.9-4.05-21.45-5.76-5.55-1.71-9.87-4-12.96-6.88-3.1-2.88-5.23-6.61-6.4-11.2-1.18-4.59-1.76-10.72-1.76-18.41v-38.73c0-15.37,4.27-26.67,12.8-33.93,8.53-7.25,21.87-10.88,40.01-10.88h90.59v39.69h-77.14c-9.18,0-15.26,1.18-18.25,3.52-2.99,2.35-4.48,7.26-4.48,14.72v12.16c0,3.84.32,6.72.96,8.64.64,1.92,1.81,3.42,3.52,4.48,1.71,1.07,4.05,1.92,7.04,2.56,2.99.64,6.72,1.5,11.2,2.56l43.53,10.24Z"></path><path class="cls-1" d="M835.61,760.45c0-15.37,4.27-27.31,12.8-35.85,8.53-8.53,21.87-12.8,40.01-12.8h103.39v39.69h-89.95c-9.39,0-15.52,1.87-18.4,5.6-2.88,3.74-4.32,9.34-4.32,16.8v32.01h81.62v39.37h-81.62v28.49c0,7.47,1.44,13.07,4.32,16.81,2.88,3.74,9.01,5.6,18.4,5.6h89.95v39.69h-103.39c-18.14,0-31.48-4.27-40.01-12.8-8.54-8.53-12.8-20.49-12.8-35.85v-126.76Z"></path></g><path class="cls-1" d="M746.84,596.13c-16.52,0-29.91-13.39-29.91-29.91v-257.13l-105.85,79.16v161c0,25.85-21.03,46.88-46.88,46.88h-53.52c-25.85,0-46.88-21.03-46.88-46.88V217.04l-105.85,79.16v270.01c0,16.52-13.39,29.91-29.91,29.91s-29.91-13.39-29.91-29.91v-276.65c0-12.72,5.27-25.06,14.46-33.86l1.31-1.26,132.11-98.8c13.51-11.75,32.56-14.81,49.15-7.73,17.3,7.38,28.47,24.31,28.47,43.11v345.28h27.61v-154.7c0-12.72,5.27-25.06,14.46-33.86l1.31-1.26,132.11-98.8c13.52-11.75,32.56-14.81,49.15-7.73,17.3,7.38,28.47,24.31,28.47,43.11v283.15c0,16.52-13.39,29.91-29.91,29.91Z"></path></svg>